<svg xmlns="http://www.w3.org/2000/svg" xmlns:xlink="http://www.w3.org/1999/xlink" width="500" zoomAndPan="magnify" viewBox="0 0 375 374.999991" height="500" preserveAspectRatio="xMidYMid meet" version="1.0"><defs><clipPath id="13e8d53c4a"><path d="M 93 260 L 209 260 L 209 365.171875 L 93 365.171875 Z M 93 260 " clip-rule="nonzero"/></clipPath><clipPath id="a97e22739a"><path d="M 160 9.671875 L 277 9.671875 L 277 115 L 160 115 Z M 160 9.671875 " clip-rule="nonzero"/></clipPath></defs><rect x="-37.5" width="450" fill="#ffffff" y="-37.499999" height="449.999989" fill-opacity="1"/><rect x="-37.5" width="450" fill="#ffffff" y="-37.499999" height="449.999989" fill-opacity="1"/><path fill="#8a4fdc" d="M 362.222656 177.828125 L 342.226562 163.4375 L 257.386719 187.296875 L 306.925781 209.566406 L 307.15625 259.636719 L 342.832031 279.179688 L 362.601562 258.046875 Z M 362.222656 177.828125 " fill-opacity="1" fill-rule="nonzero"/><path fill="#8a4fdc" d="M 317.152344 306.070312 L 313.214844 281.832031 L 236.332031 238.730469 L 255.570312 289.558594 L 220.425781 325.160156 L 231.785156 364.167969 L 260.722656 363.183594 Z M 317.152344 306.070312 " fill-opacity="1" fill-rule="nonzero"/><g clip-path="url(#13e8d53c4a)"><path fill="#8a4fdc" d="M 194.441406 365.078125 L 208.835938 345.078125 L 184.972656 260.242188 L 162.703125 309.78125 L 112.636719 310.007812 L 93.09375 345.6875 L 114.226562 365.457031 Z M 194.441406 365.078125 " fill-opacity="1" fill-rule="nonzero"/></g><path fill="#8a4fdc" d="M 66.203125 320.007812 L 90.441406 316.070312 L 133.542969 239.183594 L 82.714844 258.425781 L 47.113281 223.277344 L 8.105469 234.640625 L 9.089844 263.574219 Z M 66.203125 320.007812 " fill-opacity="1" fill-rule="nonzero"/><path fill="#8a4fdc" d="M 7.195312 197.296875 L 27.191406 211.6875 L 112.03125 187.828125 L 62.492188 165.558594 L 62.261719 115.488281 L 26.585938 95.945312 L 6.816406 117.082031 Z M 7.195312 197.296875 " fill-opacity="1" fill-rule="nonzero"/><path fill="#8a4fdc" d="M 52.265625 69.054688 L 56.203125 93.296875 L 133.085938 136.394531 L 113.847656 85.570312 L 149.070312 50.042969 L 137.632812 10.957031 L 108.695312 11.941406 Z M 52.265625 69.054688 " fill-opacity="1" fill-rule="nonzero"/><g clip-path="url(#a97e22739a)"><path fill="#8a4fdc" d="M 174.976562 10.050781 L 160.582031 30.046875 L 184.445312 114.882812 L 206.714844 65.34375 L 256.78125 65.117188 L 276.324219 29.441406 L 255.191406 9.671875 Z M 174.976562 10.050781 " fill-opacity="1" fill-rule="nonzero"/></g><path fill="#8a4fdc" d="M 303.214844 55.117188 L 278.976562 59.058594 L 235.875 135.941406 L 286.703125 116.703125 L 322.304688 151.925781 L 361.3125 140.484375 L 360.328125 111.550781 Z M 303.214844 55.117188 " fill-opacity="1" fill-rule="nonzero"/></svg>